<?xml version="1.0" encoding="UTF-8" standalone="no"?>
<!-- Created with Inkscape (http://www.inkscape.org/) -->

<svg
   width="12.517544mm"
   height="13.477052mm"
   viewBox="0 0 12.517544 13.477052"
   version="1.1"
   id="svg1"
   xmlns:inkscape="http://www.inkscape.org/namespaces/inkscape"
   xmlns:sodipodi="http://sodipodi.sourceforge.net/DTD/sodipodi-0.dtd"
   xmlns="http://www.w3.org/2000/svg"
   xmlns:svg="http://www.w3.org/2000/svg">
  <sodipodi:namedview
     id="namedview1"
     pagecolor="#ffffff"
     bordercolor="#000000"
     borderopacity="0.25"
     inkscape:showpageshadow="2"
     inkscape:pageopacity="0.0"
     inkscape:pagecheckerboard="0"
     inkscape:deskcolor="#d1d1d1"
     inkscape:document-units="mm"
     inkscape:zoom="5.9331617"
     inkscape:cx="101.37934"
     inkscape:cy="529.56588"
     inkscape:window-width="1440"
     inkscape:window-height="847"
     inkscape:window-x="0"
     inkscape:window-y="25"
     inkscape:window-maximized="1"
     inkscape:current-layer="layer1" />
  <defs
     id="defs1">
    <inkscape:path-effect
       effect="simplify"
       id="path-effect6"
       is_visible="true"
       lpeversion="1.3"
       threshold="96.1538"
       steps="1"
       smooth_angles="360"
       helper_size="0"
       simplify_individual_paths="false"
       simplify_just_coalesce="false" />
    <inkscape:path-effect
       effect="simplify"
       id="path-effect4"
       is_visible="true"
       lpeversion="1.3"
       threshold="96.1538"
       steps="1"
       smooth_angles="360"
       helper_size="0"
       simplify_individual_paths="false"
       simplify_just_coalesce="false" />
    <inkscape:path-effect
       effect="simplify"
       id="path-effect2"
       is_visible="true"
       lpeversion="1.3"
       threshold="96.1538"
       steps="1"
       smooth_angles="360"
       helper_size="0"
       simplify_individual_paths="false"
       simplify_just_coalesce="false" />
  </defs>
  <g
     inkscape:label="Layer 1"
     inkscape:groupmode="layer"
     id="layer1"
     transform="translate(-22.620392,-128.27147)">
    <path
       style="fill:none;stroke-width:0.264583"
       d="m 25.71955,139.80883 c 2.6362,-9.07907 7.870616,-18.77351 16.486891,-23.08164 1.317903,-0.65895 12.868206,0.11272 14.508464,0.65947 0.219152,0.073 2.485192,1.16624 2.637901,1.31896 1.36448,1.36447 -2.085102,-0.0533 0.659477,1.31895 0.393234,0.19661 0.925716,-0.19662 1.31895,0 1.104157,0.55208 6.229221,2.93184 6.594758,3.29737 0.27635,0.27635 0.459635,1.57875 0.659474,1.97843 0.656363,1.31272 1.509954,2.55144 1.978428,3.95685 0.875979,2.62794 -1.227675,6.77731 0,9.23266 0.919247,1.8385 0.209388,2.15651 0.659476,3.95686 0.287462,1.14985 1.031489,2.14753 1.318951,3.29738 0.366519,1.46607 0.193786,2.55978 0.659476,3.95685 0.09831,0.29493 0.520446,0.38142 0.659474,0.65947 0.591992,1.18399 0.759055,2.83706 1.318953,3.95686 1.372288,2.74458 -0.04553,-0.705 1.318951,0.65948 0.15544,0.15544 -0.09831,0.46285 0,0.65947 0.540144,1.08029 1.945201,2.57145 2.637904,3.95685 0.657828,1.31566 5.279099,5.93693 6.594755,6.59476 1.062768,0.53139 2.210366,0.77545 3.297378,1.31895 0.589854,0.29493 1.352793,-0.20854 1.978427,0 0.829662,0.27656 1.664877,0.99461 2.637904,1.31895 1.255027,0.41835 -0.531633,-0.83668 1.978427,0 0.294926,0.0983 0.364548,0.56117 0.659474,0.65948 1.051875,0.35062 2.166019,0.28235 3.297377,0.65948 1.32027,0.44008 10.77426,0.36543 11.87056,0 1.95181,-0.65061 8.3055,-5.00813 9.89214,-6.59476 0.75767,-0.75767 2.15467,-1.01196 2.6379,-1.97843 0.1947,-0.38939 1.10019,-2.41914 1.31895,-2.6379 0.15544,-0.15544 0.50404,0.15544 0.65948,0 0.15544,-0.15544 -0.15544,-0.50404 0,-0.65948 0.15544,-0.15544 0.50403,0.15544 0.65947,0 0.30485,-0.30485 -0.19908,-1.58025 0,-1.97842 1.14369,-2.28737 2.04311,-4.68101 3.95686,-6.59476"
       id="path1" />
    <path
       style="fill:none;stroke:#000000;stroke-width:0.465;stroke-linecap:round;stroke-dasharray:none;stroke-opacity:1"
       d="m 23.382058,134.59394 c 0.189604,-0.90157 0.77991,-1.82761 1.642264,-2.13085 0.633347,-0.22271 1.425897,-0.39384 2.027823,-0.0766 0.493292,0.26 0.654895,0.80739 0.891603,1.27752 0.540842,1.07416 0.608445,2.40531 1.535504,3.27757 0.749956,0.70562 1.898608,1.06501 2.851274,0.75736 0.722651,-0.23337 1.529334,-0.70827 1.708266,-1.43501 0.08614,-0.34985 0.260148,-0.67197 0.337478,-1.01958"
       id="path2"
       inkscape:path-effect="#path-effect2"
       inkscape:original-d="m 23.382058,134.59394 c 0.136002,-0.70398 0.508439,-1.18977 0.991028,-1.67236 0.467066,-0.46707 0.990164,-0.65036 1.641389,-0.65036 0.26048,0 0.585828,-0.0525 0.83618,0.031 0.609552,0.20318 0.604355,0.584 0.867148,1.022 0.108952,0.18158 0.259521,0.35458 0.340666,0.55745 0.458568,1.14642 0.538843,2.38739 1.610421,3.22084 0.444577,0.34578 0.903161,0.5095 1.455571,0.58842 0.369586,0.0528 0.713711,0.0772 1.083937,0.031 0.640003,-0.08 1.476391,-0.86056 1.796238,-1.39363 0.09955,-0.16592 0.127063,-0.3812 0.185817,-0.55746 0.05674,-0.17023 0.185817,-0.33378 0.185817,-0.52648" />
    <path
       style="fill:none;stroke:#000000;stroke-width:0.465;stroke-linecap:round;stroke-dasharray:none;stroke-opacity:1"
       d="m 23.382058,134.59394 c 0.189604,-0.90157 0.77991,-1.82761 1.642264,-2.13085 0.633347,-0.22271 1.425897,-0.39384 2.027823,-0.0766 0.493292,0.26 0.654895,0.80739 0.891603,1.27752 0.540842,1.07416 0.608445,2.40531 1.535504,3.27757 0.749956,0.70562 1.898608,1.06501 2.851274,0.75736 0.722651,-0.23337 1.529334,-0.70827 1.708266,-1.43501 0.08614,-0.34985 0.260148,-0.67197 0.337478,-1.01958"
       id="path3"
       inkscape:path-effect="#path-effect4"
       inkscape:original-d="m 23.382058,134.59394 c 0.136002,-0.70398 0.508439,-1.18977 0.991028,-1.67236 0.467066,-0.46707 0.990164,-0.65036 1.641389,-0.65036 0.26048,0 0.585828,-0.0525 0.83618,0.031 0.609552,0.20318 0.604355,0.584 0.867148,1.022 0.108952,0.18158 0.259521,0.35458 0.340666,0.55745 0.458568,1.14642 0.538843,2.38739 1.610421,3.22084 0.444577,0.34578 0.903161,0.5095 1.455571,0.58842 0.369586,0.0528 0.713711,0.0772 1.083937,0.031 0.640003,-0.08 1.476391,-0.86056 1.796238,-1.39363 0.09955,-0.16592 0.127063,-0.3812 0.185817,-0.55746 0.05674,-0.17023 0.185817,-0.33378 0.185817,-0.52648"
       transform="translate(-0.52916663,3.7041665)" />
    <path
       style="fill:none;stroke:#000000;stroke-width:0.465;stroke-linecap:round;stroke-dasharray:none;stroke-opacity:1"
       d="m 23.382058,134.59394 c 0.189604,-0.90157 0.77991,-1.82761 1.642264,-2.13085 0.633347,-0.22271 1.425897,-0.39384 2.027823,-0.0766 0.493292,0.26 0.654895,0.80739 0.891603,1.27752 0.540842,1.07416 0.608445,2.40531 1.535504,3.27757 0.749956,0.70562 1.898608,1.06501 2.851274,0.75736 0.722651,-0.23337 1.529334,-0.70827 1.708266,-1.43501 0.08614,-0.34985 0.260148,-0.67197 0.337478,-1.01958"
       id="path4"
       inkscape:path-effect="#path-effect6"
       inkscape:original-d="m 23.382058,134.59394 c 0.136002,-0.70398 0.508439,-1.18977 0.991028,-1.67236 0.467066,-0.46707 0.990164,-0.65036 1.641389,-0.65036 0.26048,0 0.585828,-0.0525 0.83618,0.031 0.609552,0.20318 0.604355,0.584 0.867148,1.022 0.108952,0.18158 0.259521,0.35458 0.340666,0.55745 0.458568,1.14642 0.538843,2.38739 1.610421,3.22084 0.444577,0.34578 0.903161,0.5095 1.455571,0.58842 0.369586,0.0528 0.713711,0.0772 1.083937,0.031 0.640003,-0.08 1.476391,-0.86056 1.796238,-1.39363 0.09955,-0.16592 0.127063,-0.3812 0.185817,-0.55746 0.05674,-0.17023 0.185817,-0.33378 0.185817,-0.52648"
       transform="translate(0.52916667,-3.7041668)"
       inkscape:export-filename="path4.svg"
       inkscape:export-xdpi="96"
       inkscape:export-ydpi="96" />
  </g>
</svg>
